<?xml version="1.0" encoding="UTF-8" standalone="no"?>
<!DOCTYPE svg PUBLIC "-//W3C//DTD SVG 1.1//EN"
 "http://www.w3.org/Graphics/SVG/1.1/DTD/svg11.dtd">
<!-- Generated by graphviz version 13.1.1 (20250719.2154)
 -->
<!-- Title: G Pages: 1 -->
<svg width="1760pt" height="825pt"
 viewBox="0.00 0.00 1760.00 825.00" xmlns="http://www.w3.org/2000/svg" xmlns:xlink="http://www.w3.org/1999/xlink">
<g id="graph0" class="graph" transform="scale(1 1) rotate(0) translate(21.6 803.03)">
<title>G</title>
<polygon fill="#111111" stroke="none" points="-21.6,21.6 -21.6,-803.03 1738.1,-803.03 1738.1,21.6 -21.6,21.6"/>
<!-- components/ChannelList.js -->
<g id="node1" class="node">
<title>components/ChannelList.js</title>
<path fill="none" stroke="#c6c5fe" d="M1380.33,-683.75C1380.33,-683.75 1217.42,-683.75 1217.42,-683.75 1213.46,-683.75 1209.5,-679.79 1209.5,-675.83 1209.5,-675.83 1209.5,-667.92 1209.5,-667.92 1209.5,-663.96 1213.46,-660 1217.42,-660 1217.42,-660 1380.33,-660 1380.33,-660 1384.29,-660 1388.25,-663.96 1388.25,-667.92 1388.25,-667.92 1388.25,-675.83 1388.25,-675.83 1388.25,-679.79 1384.29,-683.75 1380.33,-683.75"/>
<text xml:space="preserve" text-anchor="middle" x="1298.88" y="-666.45" font-family="Arial" font-size="14.00" fill="#c6c5fe">components/ChannelList.js</text>
</g>
<!-- utils/helpers.js -->
<g id="node2" class="node">
<title>utils/helpers.js</title>
<path fill="none" stroke="#cfffac" d="M1524.58,-344.75C1524.58,-344.75 1438.92,-344.75 1438.92,-344.75 1434.96,-344.75 1431,-340.79 1431,-336.83 1431,-336.83 1431,-328.92 1431,-328.92 1431,-324.96 1434.96,-321 1438.92,-321 1438.92,-321 1524.58,-321 1524.58,-321 1528.54,-321 1532.5,-324.96 1532.5,-328.92 1532.5,-328.92 1532.5,-336.83 1532.5,-336.83 1532.5,-340.79 1528.54,-344.75 1524.58,-344.75"/>
<text xml:space="preserve" text-anchor="middle" x="1481.75" y="-327.45" font-family="Arial" font-size="14.00" fill="#cfffac">utils/helpers.js</text>
</g>
<!-- components/ChannelList.js&#45;&gt;utils/helpers.js -->
<g id="edge1" class="edge">
<title>components/ChannelList.js&#45;&gt;utils/helpers.js</title>
<path fill="none" stroke="#757575" d="M1376.47,-659.53C1380.73,-657.11 1384.71,-654.24 1388.25,-650.88 1431.88,-609.36 1466.05,-422.83 1477.02,-356.43"/>
<polygon fill="#757575" stroke="#757575" points="1480.46,-357.09 1478.61,-346.66 1473.55,-355.97 1480.46,-357.09"/>
</g>
<!-- components/ResizableGroup.js -->
<g id="node3" class="node">
<title>components/ResizableGroup.js</title>
<path fill="none" stroke="#cfffac" d="M327.46,-701.75C327.46,-701.75 138.29,-701.75 138.29,-701.75 134.33,-701.75 130.38,-697.79 130.38,-693.83 130.38,-693.83 130.38,-685.92 130.38,-685.92 130.38,-681.96 134.33,-678 138.29,-678 138.29,-678 327.46,-678 327.46,-678 331.42,-678 335.38,-681.96 335.38,-685.92 335.38,-685.92 335.38,-693.83 335.38,-693.83 335.38,-697.79 331.42,-701.75 327.46,-701.75"/>
<text xml:space="preserve" text-anchor="middle" x="232.88" y="-684.45" font-family="Arial" font-size="14.00" fill="#cfffac">components/ResizableGroup.js</text>
</g>
<!-- components/chartComponent.js -->
<g id="node4" class="node">
<title>components/chartComponent.js</title>
<path fill="none" stroke="#c6c5fe" d="M898.33,-521.75C898.33,-521.75 706.17,-521.75 706.17,-521.75 702.21,-521.75 698.25,-517.79 698.25,-513.83 698.25,-513.83 698.25,-505.92 698.25,-505.92 698.25,-501.96 702.21,-498 706.17,-498 706.17,-498 898.33,-498 898.33,-498 902.29,-498 906.25,-501.96 906.25,-505.92 906.25,-505.92 906.25,-513.83 906.25,-513.83 906.25,-517.79 902.29,-521.75 898.33,-521.75"/>
<text xml:space="preserve" text-anchor="middle" x="802.25" y="-504.45" font-family="Arial" font-size="14.00" fill="#c6c5fe">components/chartComponent.js</text>
</g>
<!-- components/chartComponent.js&#45;&gt;utils/helpers.js -->
<g id="edge8" class="edge">
<title>components/chartComponent.js&#45;&gt;utils/helpers.js</title>
<path fill="none" stroke="#757575" d="M869.88,-497.54C882.32,-494 894.94,-489.51 906.25,-483.88 924.64,-474.7 923.49,-463.26 942.25,-454.88 1037.33,-412.36 1071.74,-439.08 1173.5,-416.88 1264.8,-396.95 1369.44,-366.73 1430.03,-348.49"/>
<polygon fill="#757575" stroke="#757575" points="1430.81,-351.91 1439.37,-345.66 1428.78,-345.21 1430.81,-351.91"/>
</g>
<!-- components/createState.js -->
<g id="node5" class="node">
<title>components/createState.js</title>
<path fill="none" stroke="#cfffac" d="M1138.21,-407.75C1138.21,-407.75 977.54,-407.75 977.54,-407.75 973.58,-407.75 969.62,-403.79 969.62,-399.83 969.62,-399.83 969.62,-391.92 969.62,-391.92 969.62,-387.96 973.58,-384 977.54,-384 977.54,-384 1138.21,-384 1138.21,-384 1142.17,-384 1146.12,-387.96 1146.12,-391.92 1146.12,-391.92 1146.12,-399.83 1146.12,-399.83 1146.12,-403.79 1142.17,-407.75 1138.21,-407.75"/>
<text xml:space="preserve" text-anchor="middle" x="1057.88" y="-390.45" font-family="Arial" font-size="14.00" fill="#cfffac">components/createState.js</text>
</g>
<!-- components/chartComponent.js&#45;&gt;components/createState.js -->
<g id="edge2" class="edge">
<title>components/chartComponent.js&#45;&gt;components/createState.js</title>
<path fill="none" stroke="#757575" d="M880.9,-497.55C889.96,-494.06 898.67,-489.59 906.25,-483.88 931.69,-464.69 916.58,-440.75 942.25,-421.88 947.46,-418.04 953.14,-414.76 959.1,-411.95"/>
<polygon fill="#757575" stroke="#757575" points="960.07,-415.34 967.94,-408.24 957.36,-408.88 960.07,-415.34"/>
</g>
<!-- plugins/autoUnitScalePlugin.js -->
<g id="node6" class="node">
<title>plugins/autoUnitScalePlugin.js</title>
<path fill="none" stroke="#c6c5fe" d="M1148.71,-605.75C1148.71,-605.75 967.04,-605.75 967.04,-605.75 963.08,-605.75 959.12,-601.79 959.12,-597.83 959.12,-597.83 959.12,-589.92 959.12,-589.92 959.12,-585.96 963.08,-582 967.04,-582 967.04,-582 1148.71,-582 1148.71,-582 1152.67,-582 1156.62,-585.96 1156.62,-589.92 1156.62,-589.92 1156.62,-597.83 1156.62,-597.83 1156.62,-601.79 1152.67,-605.75 1148.71,-605.75"/>
<text xml:space="preserve" text-anchor="middle" x="1057.88" y="-588.45" font-family="Arial" font-size="14.00" fill="#c6c5fe">plugins/autoUnitScalePlugin.js</text>
</g>
<!-- components/chartComponent.js&#45;&gt;plugins/autoUnitScalePlugin.js -->
<g id="edge3" class="edge">
<title>components/chartComponent.js&#45;&gt;plugins/autoUnitScalePlugin.js</title>
<path fill="none" stroke="#757575" d="M840.4,-522.18C885.04,-536.96 960.04,-561.8 1008.99,-578.02"/>
<polygon fill="#757575" stroke="#757575" points="1007.59,-581.24 1018.19,-581.06 1009.8,-574.6 1007.59,-581.24"/>
</g>
<!-- plugins/horizontalZoomPanPlugin.js -->
<g id="node7" class="node">
<title>plugins/horizontalZoomPanPlugin.js</title>
<path fill="none" stroke="#cfffac" d="M1165.58,-487.75C1165.58,-487.75 950.17,-487.75 950.17,-487.75 946.21,-487.75 942.25,-483.79 942.25,-479.83 942.25,-479.83 942.25,-471.92 942.25,-471.92 942.25,-467.96 946.21,-464 950.17,-464 950.17,-464 1165.58,-464 1165.58,-464 1169.54,-464 1173.5,-467.96 1173.5,-471.92 1173.5,-471.92 1173.5,-479.83 1173.5,-479.83 1173.5,-483.79 1169.54,-487.75 1165.58,-487.75"/>
<text xml:space="preserve" text-anchor="middle" x="1057.88" y="-470.45" font-family="Arial" font-size="14.00" fill="#cfffac">plugins/horizontalZoomPanPlugin.js</text>
</g>
<!-- components/chartComponent.js&#45;&gt;plugins/horizontalZoomPanPlugin.js -->
<g id="edge4" class="edge">
<title>components/chartComponent.js&#45;&gt;plugins/horizontalZoomPanPlugin.js</title>
<path fill="none" stroke="#757575" d="M895.53,-497.5C914.36,-494.98 934.28,-492.31 953.47,-489.74"/>
<polygon fill="#757575" stroke="#757575" points="953.72,-493.24 963.16,-488.44 952.79,-486.3 953.72,-493.24"/>
</g>
<!-- plugins/verticalLinePlugin.js -->
<g id="node8" class="node">
<title>plugins/verticalLinePlugin.js</title>
<path fill="none" stroke="#c6c5fe" d="M1140.83,-365.75C1140.83,-365.75 974.92,-365.75 974.92,-365.75 970.96,-365.75 967,-361.79 967,-357.83 967,-357.83 967,-349.92 967,-349.92 967,-345.96 970.96,-342 974.92,-342 974.92,-342 1140.83,-342 1140.83,-342 1144.79,-342 1148.75,-345.96 1148.75,-349.92 1148.75,-349.92 1148.75,-357.83 1148.75,-357.83 1148.75,-361.79 1144.79,-365.75 1140.83,-365.75"/>
<text xml:space="preserve" text-anchor="middle" x="1057.88" y="-348.45" font-family="Arial" font-size="14.00" fill="#c6c5fe">plugins/verticalLinePlugin.js</text>
</g>
<!-- components/chartComponent.js&#45;&gt;plugins/verticalLinePlugin.js -->
<g id="edge5" class="edge">
<title>components/chartComponent.js&#45;&gt;plugins/verticalLinePlugin.js</title>
<path fill="none" stroke="#757575" d="M815.26,-497.84C847.57,-465.5 934.48,-378.88 942.25,-374.88 946.67,-372.6 951.29,-370.56 956.05,-368.75"/>
<polygon fill="#757575" stroke="#757575" points="956.88,-372.16 965.19,-365.6 954.6,-365.54 956.88,-372.16"/>
</g>
<!-- utils/calculateDeltas.js -->
<g id="node9" class="node">
<title>utils/calculateDeltas.js</title>
<path fill="none" stroke="#c6c5fe" d="M1365.33,-523.75C1365.33,-523.75 1232.42,-523.75 1232.42,-523.75 1228.46,-523.75 1224.5,-519.79 1224.5,-515.83 1224.5,-515.83 1224.5,-507.92 1224.5,-507.92 1224.5,-503.96 1228.46,-500 1232.42,-500 1232.42,-500 1365.33,-500 1365.33,-500 1369.29,-500 1373.25,-503.96 1373.25,-507.92 1373.25,-507.92 1373.25,-515.83 1373.25,-515.83 1373.25,-519.79 1369.29,-523.75 1365.33,-523.75"/>
<text xml:space="preserve" text-anchor="middle" x="1298.88" y="-506.45" font-family="Arial" font-size="14.00" fill="#c6c5fe">utils/calculateDeltas.js</text>
</g>
<!-- components/chartComponent.js&#45;&gt;utils/calculateDeltas.js -->
<g id="edge6" class="edge">
<title>components/chartComponent.js&#45;&gt;utils/calculateDeltas.js</title>
<path fill="none" stroke="#757575" d="M906.64,-510.29C997.48,-510.66 1128.05,-511.19 1212.92,-511.53"/>
<polygon fill="#757575" stroke="#757575" points="1212.8,-515.03 1222.81,-511.57 1212.82,-508.03 1212.8,-515.03"/>
</g>
<!-- utils/constants.js -->
<g id="node10" class="node">
<title>utils/constants.js</title>
<path fill="none" stroke="#c6c5fe" d="M1531.33,-621.75C1531.33,-621.75 1432.17,-621.75 1432.17,-621.75 1428.21,-621.75 1424.25,-617.79 1424.25,-613.83 1424.25,-613.83 1424.25,-605.92 1424.25,-605.92 1424.25,-601.96 1428.21,-598 1432.17,-598 1432.17,-598 1531.33,-598 1531.33,-598 1535.29,-598 1539.25,-601.96 1539.25,-605.92 1539.25,-605.92 1539.25,-613.83 1539.25,-613.83 1539.25,-617.79 1535.29,-621.75 1531.33,-621.75"/>
<text xml:space="preserve" text-anchor="middle" x="1481.75" y="-604.45" font-family="Arial" font-size="14.00" fill="#c6c5fe">utils/constants.js</text>
</g>
<!-- components/chartComponent.js&#45;&gt;utils/constants.js -->
<g id="edge7" class="edge">
<title>components/chartComponent.js&#45;&gt;utils/constants.js</title>
<path fill="none" stroke="#757575" d="M812.06,-522.21C831.93,-548.99 883.12,-612.53 942.25,-642.88 1049.76,-698.05 1089.18,-681.72 1209.5,-692.88 1288.6,-700.21 1314.06,-721.28 1388.25,-692.88 1420.43,-680.55 1448.46,-651.3 1464.99,-631.04"/>
<polygon fill="#757575" stroke="#757575" points="1467.58,-633.41 1471.02,-623.38 1462.08,-629.08 1467.58,-633.41"/>
</g>
<!-- utils/scaleUtils.js -->
<g id="node11" class="node">
<title>utils/scaleUtils.js</title>
<path fill="none" stroke="#c6c5fe" d="M1348.46,-641.75C1348.46,-641.75 1249.29,-641.75 1249.29,-641.75 1245.33,-641.75 1241.38,-637.79 1241.38,-633.83 1241.38,-633.83 1241.38,-625.92 1241.38,-625.92 1241.38,-621.96 1245.33,-618 1249.29,-618 1249.29,-618 1348.46,-618 1348.46,-618 1352.42,-618 1356.38,-621.96 1356.38,-625.92 1356.38,-625.92 1356.38,-633.83 1356.38,-633.83 1356.38,-637.79 1352.42,-641.75 1348.46,-641.75"/>
<text xml:space="preserve" text-anchor="middle" x="1298.88" y="-624.45" font-family="Arial" font-size="14.00" fill="#c6c5fe">utils/scaleUtils.js</text>
</g>
<!-- components/chartComponent.js&#45;&gt;utils/scaleUtils.js -->
<g id="edge9" class="edge">
<title>components/chartComponent.js&#45;&gt;utils/scaleUtils.js</title>
<path fill="none" stroke="#757575" d="M814.38,-522.24C836.21,-545.49 887.31,-595.16 942.25,-614.88 1037.49,-649.05 1156.38,-645.65 1229.71,-638.75"/>
<polygon fill="#757575" stroke="#757575" points="1229.97,-642.24 1239.57,-637.77 1229.27,-635.28 1229.97,-642.24"/>
</g>
<!-- plugins/autoUnitScalePlugin.js&#45;&gt;utils/helpers.js -->
<g id="edge49" class="edge">
<title>plugins/autoUnitScalePlugin.js&#45;&gt;utils/helpers.js</title>
<path fill="none" stroke="#757575" d="M1157.1,-598.51C1228.16,-596.85 1322.8,-583.71 1388.25,-532.88 1446,-488.02 1469.08,-398.66 1477.07,-356.25"/>
<polygon fill="#757575" stroke="#757575" points="1480.47,-357.1 1478.75,-346.64 1473.58,-355.89 1480.47,-357.1"/>
</g>
<!-- plugins/autoUnitScalePlugin.js&#45;&gt;utils/constants.js -->
<g id="edge48" class="edge">
<title>plugins/autoUnitScalePlugin.js&#45;&gt;utils/constants.js</title>
<path fill="none" stroke="#757575" d="M1156.99,-597.6C1235.51,-600.57 1343.59,-604.67 1412.82,-607.3"/>
<polygon fill="#757575" stroke="#757575" points="1412.37,-610.78 1422.5,-607.67 1412.64,-603.79 1412.37,-610.78"/>
</g>
<!-- plugins/autoUnitScalePlugin.js&#45;&gt;utils/scaleUtils.js -->
<g id="edge50" class="edge">
<title>plugins/autoUnitScalePlugin.js&#45;&gt;utils/scaleUtils.js</title>
<path fill="none" stroke="#757575" d="M1140.79,-606.21C1169.77,-610.58 1202.03,-615.44 1229.74,-619.61"/>
<polygon fill="#757575" stroke="#757575" points="1229.01,-623.04 1239.42,-621.07 1230.05,-616.12 1229.01,-623.04"/>
</g>
<!-- plugins/verticalLinePlugin.js&#45;&gt;utils/helpers.js -->
<g id="edge53" class="edge">
<title>plugins/verticalLinePlugin.js&#45;&gt;utils/helpers.js</title>
<path fill="none" stroke="#757575" d="M1149.12,-349.38C1230.52,-345.33 1348.05,-339.48 1419.14,-335.94"/>
<polygon fill="#757575" stroke="#757575" points="1419.24,-339.44 1429.05,-335.45 1418.89,-332.45 1419.24,-339.44"/>
</g>
<!-- plugins/verticalLinePlugin.js&#45;&gt;utils/calculateDeltas.js -->
<g id="edge51" class="edge">
<title>plugins/verticalLinePlugin.js&#45;&gt;utils/calculateDeltas.js</title>
<path fill="none" stroke="#757575" d="M1149.02,-360.49C1157.96,-363.94 1166.35,-368.61 1173.5,-374.88 1212.52,-409.04 1172.33,-449.71 1209.5,-485.88 1212.7,-488.99 1216.25,-491.73 1220.03,-494.14"/>
<polygon fill="#757575" stroke="#757575" points="1218.09,-497.07 1228.54,-498.78 1221.43,-490.92 1218.09,-497.07"/>
</g>
<!-- plugins/verticalLinePlugin.js&#45;&gt;utils/constants.js -->
<g id="edge52" class="edge">
<title>plugins/verticalLinePlugin.js&#45;&gt;utils/constants.js</title>
<path fill="none" stroke="#757575" d="M1143.25,-366.19C1153.57,-368.62 1163.86,-371.48 1173.5,-374.88 1275.83,-410.87 1305.47,-420.77 1388.25,-490.88 1422.12,-519.56 1451.72,-562.48 1467.83,-588.17"/>
<polygon fill="#757575" stroke="#757575" points="1464.7,-589.75 1472.91,-596.44 1470.66,-586.09 1464.7,-589.75"/>
</g>
<!-- utils/calculateDeltas.js&#45;&gt;utils/helpers.js -->
<g id="edge55" class="edge">
<title>utils/calculateDeltas.js&#45;&gt;utils/helpers.js</title>
<path fill="none" stroke="#757575" d="M1319.99,-499.53C1338.7,-487.55 1366.83,-468.24 1388.25,-447.88 1419.12,-418.53 1448.91,-378.8 1466,-354.55"/>
<polygon fill="#757575" stroke="#757575" points="1468.81,-356.63 1471.65,-346.42 1463.07,-352.63 1468.81,-356.63"/>
</g>
<!-- utils/calculateDeltas.js&#45;&gt;utils/constants.js -->
<g id="edge54" class="edge">
<title>utils/calculateDeltas.js&#45;&gt;utils/constants.js</title>
<path fill="none" stroke="#757575" d="M1322.42,-524.09C1353.96,-541.18 1411.48,-572.35 1447.83,-592.04"/>
<polygon fill="#757575" stroke="#757575" points="1446.13,-595.1 1456.59,-596.79 1449.47,-588.95 1446.13,-595.1"/>
</g>
<!-- utils/tailwindColors.js -->
<g id="node28" class="node">
<title>utils/tailwindColors.js</title>
<path fill="none" stroke="#cfffac" d="M1708.58,-621.75C1708.58,-621.75 1583.17,-621.75 1583.17,-621.75 1579.21,-621.75 1575.25,-617.79 1575.25,-613.83 1575.25,-613.83 1575.25,-605.92 1575.25,-605.92 1575.25,-601.96 1579.21,-598 1583.17,-598 1583.17,-598 1708.58,-598 1708.58,-598 1712.54,-598 1716.5,-601.96 1716.5,-605.92 1716.5,-605.92 1716.5,-613.83 1716.5,-613.83 1716.5,-617.79 1712.54,-621.75 1708.58,-621.75"/>
<text xml:space="preserve" text-anchor="middle" x="1645.88" y="-604.45" font-family="Arial" font-size="14.00" fill="#cfffac">utils/tailwindColors.js</text>
</g>
<!-- utils/constants.js&#45;&gt;utils/tailwindColors.js -->
<g id="edge57" class="edge">
<title>utils/constants.js&#45;&gt;utils/tailwindColors.js</title>
<path fill="none" stroke="#757575" d="M1539.45,-609.88C1547.21,-609.88 1555.3,-609.88 1563.39,-609.88"/>
<polygon fill="#757575" stroke="#757575" points="1563.29,-613.38 1573.29,-609.88 1563.29,-606.38 1563.29,-613.38"/>
</g>
<!-- utils/scaleUtils.js&#45;&gt;utils/constants.js -->
<g id="edge58" class="edge">
<title>utils/scaleUtils.js&#45;&gt;utils/constants.js</title>
<path fill="none" stroke="#757575" d="M1356.61,-623.6C1374.37,-621.64 1394.15,-619.45 1412.61,-617.41"/>
<polygon fill="#757575" stroke="#757575" points="1412.85,-620.9 1422.4,-616.33 1412.08,-613.95 1412.85,-620.9"/>
</g>
<!-- components/chartManager.js -->
<g id="node12" class="node">
<title>components/chartManager.js</title>
<path fill="none" stroke="#c6c5fe" d="M621.71,-541.75C621.71,-541.75 446.79,-541.75 446.79,-541.75 442.83,-541.75 438.88,-537.79 438.88,-533.83 438.88,-533.83 438.88,-525.92 438.88,-525.92 438.88,-521.96 442.83,-518 446.79,-518 446.79,-518 621.71,-518 621.71,-518 625.67,-518 629.62,-521.96 629.62,-525.92 629.62,-525.92 629.62,-533.83 629.62,-533.83 629.62,-537.79 625.67,-541.75 621.71,-541.75"/>
<text xml:space="preserve" text-anchor="middle" x="534.25" y="-524.45" font-family="Arial" font-size="14.00" fill="#c6c5fe">components/chartManager.js</text>
</g>
<!-- components/chartManager.js&#45;&gt;components/chartComponent.js -->
<g id="edge10" class="edge">
<title>components/chartManager.js&#45;&gt;components/chartComponent.js</title>
<path fill="none" stroke="#757575" d="M629.78,-522.77C648.17,-521.38 667.63,-519.92 686.59,-518.5"/>
<polygon fill="#757575" stroke="#757575" points="686.77,-521.99 696.48,-517.75 686.25,-515.01 686.77,-521.99"/>
</g>
<!-- components/comtradeUtils.js -->
<g id="node13" class="node">
<title>components/comtradeUtils.js</title>
<path fill="none" stroke="#cfffac" d="M320.33,-404.75C320.33,-404.75 145.42,-404.75 145.42,-404.75 141.46,-404.75 137.5,-400.79 137.5,-396.83 137.5,-396.83 137.5,-388.92 137.5,-388.92 137.5,-384.96 141.46,-381 145.42,-381 145.42,-381 320.33,-381 320.33,-381 324.29,-381 328.25,-384.96 328.25,-388.92 328.25,-388.92 328.25,-396.83 328.25,-396.83 328.25,-400.79 324.29,-404.75 320.33,-404.75"/>
<text xml:space="preserve" text-anchor="middle" x="232.88" y="-387.45" font-family="Arial" font-size="14.00" fill="#cfffac">components/comtradeUtils.js</text>
</g>
<!-- components/createDragBar.js -->
<g id="node14" class="node">
<title>components/createDragBar.js</title>
<path fill="none" stroke="#c6c5fe" d="M891.58,-129.75C891.58,-129.75 712.92,-129.75 712.92,-129.75 708.96,-129.75 705,-125.79 705,-121.83 705,-121.83 705,-113.92 705,-113.92 705,-109.96 708.96,-106 712.92,-106 712.92,-106 891.58,-106 891.58,-106 895.54,-106 899.5,-109.96 899.5,-113.92 899.5,-113.92 899.5,-121.83 899.5,-121.83 899.5,-125.79 895.54,-129.75 891.58,-129.75"/>
<text xml:space="preserve" text-anchor="middle" x="802.25" y="-112.45" font-family="Arial" font-size="14.00" fill="#c6c5fe">components/createDragBar.js</text>
</g>
<!-- components/createDragBar.js&#45;&gt;utils/helpers.js -->
<g id="edge11" class="edge">
<title>components/createDragBar.js&#45;&gt;utils/helpers.js</title>
<path fill="none" stroke="#757575" d="M848.59,-105.55C953.52,-79.85 1217.12,-31.75 1388.25,-143.88 1446.53,-182.06 1469.31,-268.25 1477.14,-309.72"/>
<polygon fill="#757575" stroke="#757575" points="1473.65,-310.09 1478.82,-319.34 1480.55,-308.89 1473.65,-310.09"/>
</g>
<!-- components/handleVerticalLineShortcuts.js -->
<g id="node15" class="node">
<title>components/handleVerticalLineShortcuts.js</title>
<path fill="none" stroke="#cfffac" d="M362.33,-301.75C362.33,-301.75 103.42,-301.75 103.42,-301.75 99.46,-301.75 95.5,-297.79 95.5,-293.83 95.5,-293.83 95.5,-285.92 95.5,-285.92 95.5,-281.96 99.46,-278 103.42,-278 103.42,-278 362.33,-278 362.33,-278 366.29,-278 370.25,-281.96 370.25,-285.92 370.25,-285.92 370.25,-293.83 370.25,-293.83 370.25,-297.79 366.29,-301.75 362.33,-301.75"/>
<text xml:space="preserve" text-anchor="middle" x="232.88" y="-284.45" font-family="Arial" font-size="14.00" fill="#cfffac">components/handleVerticalLineShortcuts.js</text>
</g>
<!-- components/renderAnalogCharts.js -->
<g id="node16" class="node">
<title>components/renderAnalogCharts.js</title>
<path fill="none" stroke="#c6c5fe" d="M640.46,-263.75C640.46,-263.75 428.04,-263.75 428.04,-263.75 424.08,-263.75 420.12,-259.79 420.12,-255.83 420.12,-255.83 420.12,-247.92 420.12,-247.92 420.12,-243.96 424.08,-240 428.04,-240 428.04,-240 640.46,-240 640.46,-240 644.42,-240 648.38,-243.96 648.38,-247.92 648.38,-247.92 648.38,-255.83 648.38,-255.83 648.38,-259.79 644.42,-263.75 640.46,-263.75"/>
<text xml:space="preserve" text-anchor="middle" x="534.25" y="-246.45" font-family="Arial" font-size="14.00" fill="#c6c5fe">components/renderAnalogCharts.js</text>
</g>
<!-- components/renderAnalogCharts.js&#45;&gt;utils/helpers.js -->
<g id="edge16" class="edge">
<title>components/renderAnalogCharts.js&#45;&gt;utils/helpers.js</title>
<path fill="none" stroke="#757575" d="M600.05,-239.51C620.06,-235.45 642.12,-230.73 662.25,-225.88 678.39,-221.99 681.8,-218.13 698.25,-215.88 1002.07,-174.16 1112.51,-80.66 1388.25,-214.88 1428.95,-234.69 1457.04,-282.04 1470.87,-310.37"/>
<polygon fill="#757575" stroke="#757575" points="1467.58,-311.59 1474.98,-319.17 1473.92,-308.62 1467.58,-311.59"/>
</g>
<!-- components/renderAnalogCharts.js&#45;&gt;components/chartComponent.js -->
<g id="edge12" class="edge">
<title>components/renderAnalogCharts.js&#45;&gt;components/chartComponent.js</title>
<path fill="none" stroke="#757575" d="M578,-264.23C604.66,-273.62 638.34,-288.75 662.25,-310.88 686.2,-333.04 680.31,-347.61 698.25,-374.88 725.96,-416.98 762.61,-463.07 783.89,-489.04"/>
<polygon fill="#757575" stroke="#757575" points="780.97,-490.99 790.03,-496.48 786.37,-486.54 780.97,-490.99"/>
</g>
<!-- components/renderAnalogCharts.js&#45;&gt;plugins/verticalLinePlugin.js -->
<g id="edge14" class="edge">
<title>components/renderAnalogCharts.js&#45;&gt;plugins/verticalLinePlugin.js</title>
<path fill="none" stroke="#757575" d="M610.7,-239.53C687.04,-229.91 807.54,-222.7 906.25,-252.88 958.46,-268.84 1009.05,-309.51 1036.26,-334.1"/>
<polygon fill="#757575" stroke="#757575" points="1033.72,-336.52 1043.44,-340.74 1038.47,-331.38 1033.72,-336.52"/>
</g>
<!-- components/renderAnalogCharts.js&#45;&gt;components/createDragBar.js -->
<g id="edge13" class="edge">
<title>components/renderAnalogCharts.js&#45;&gt;components/createDragBar.js</title>
<path fill="none" stroke="#757575" d="M639.27,-239.53C647.53,-235.94 655.33,-231.46 662.25,-225.88 693.21,-200.86 667.86,-169.58 698.25,-143.88 702.16,-140.57 706.43,-137.67 710.94,-135.14"/>
<polygon fill="#757575" stroke="#757575" points="712.33,-138.35 719.78,-130.82 709.26,-132.07 712.33,-138.35"/>
</g>
<!-- utils/chartDomUtils.js -->
<g id="node17" class="node">
<title>utils/chartDomUtils.js</title>
<path fill="none" stroke="#c6c5fe" d="M1362.33,-247.75C1362.33,-247.75 1235.42,-247.75 1235.42,-247.75 1231.46,-247.75 1227.5,-243.79 1227.5,-239.83 1227.5,-239.83 1227.5,-231.92 1227.5,-231.92 1227.5,-227.96 1231.46,-224 1235.42,-224 1235.42,-224 1362.33,-224 1362.33,-224 1366.29,-224 1370.25,-227.96 1370.25,-231.92 1370.25,-231.92 1370.25,-239.83 1370.25,-239.83 1370.25,-243.79 1366.29,-247.75 1362.33,-247.75"/>
<text xml:space="preserve" text-anchor="middle" x="1298.88" y="-230.45" font-family="Arial" font-size="14.00" fill="#c6c5fe">utils/chartDomUtils.js</text>
</g>
<!-- components/renderAnalogCharts.js&#45;&gt;utils/chartDomUtils.js -->
<g id="edge15" class="edge">
<title>components/renderAnalogCharts.js&#45;&gt;utils/chartDomUtils.js</title>
<path fill="none" stroke="#757575" d="M600.42,-239.56C630.14,-234.54 665.85,-229.35 698.25,-226.88 882.86,-212.8 1100.33,-222.62 1215.93,-229.93"/>
<polygon fill="#757575" stroke="#757575" points="1215.42,-233.41 1225.62,-230.56 1215.87,-226.42 1215.42,-233.41"/>
</g>
<!-- utils/chartDomUtils.js&#45;&gt;utils/helpers.js -->
<g id="edge56" class="edge">
<title>utils/chartDomUtils.js&#45;&gt;utils/helpers.js</title>
<path fill="none" stroke="#757575" d="M1322.78,-248.16C1354.36,-265.1 1411.47,-295.72 1447.68,-315.14"/>
<polygon fill="#757575" stroke="#757575" points="1445.94,-318.18 1456.41,-319.82 1449.25,-312.01 1445.94,-318.18"/>
</g>
<!-- components/renderComtradeCharts.js -->
<g id="node18" class="node">
<title>components/renderComtradeCharts.js</title>
<path fill="none" stroke="#c6c5fe" d="M348.08,-343.75C348.08,-343.75 117.67,-343.75 117.67,-343.75 113.71,-343.75 109.75,-339.79 109.75,-335.83 109.75,-335.83 109.75,-327.92 109.75,-327.92 109.75,-323.96 113.71,-320 117.67,-320 117.67,-320 348.08,-320 348.08,-320 352.04,-320 356,-323.96 356,-327.92 356,-327.92 356,-335.83 356,-335.83 356,-339.79 352.04,-343.75 348.08,-343.75"/>
<text xml:space="preserve" text-anchor="middle" x="232.88" y="-326.45" font-family="Arial" font-size="14.00" fill="#c6c5fe">components/renderComtradeCharts.js</text>
</g>
<!-- components/renderComtradeCharts.js&#45;&gt;components/chartComponent.js -->
<g id="edge17" class="edge">
<title>components/renderComtradeCharts.js&#45;&gt;components/chartComponent.js</title>
<path fill="none" stroke="#757575" d="M310.88,-344.24C331.56,-350.18 352.96,-358.94 370.25,-371.88 393.94,-389.6 381.86,-411.12 406.25,-427.88 488.75,-484.57 602.26,-503.52 686.43,-509.2"/>
<polygon fill="#757575" stroke="#757575" points="686.14,-512.68 696.34,-509.8 686.57,-505.7 686.14,-512.68"/>
</g>
<!-- components/renderComtradeCharts.js&#45;&gt;components/createState.js -->
<g id="edge19" class="edge">
<title>components/renderComtradeCharts.js&#45;&gt;components/createState.js</title>
<path fill="none" stroke="#757575" d="M288.91,-344.22C314.28,-350.86 344.42,-360.13 370.25,-371.88 387.53,-379.74 388.03,-389.54 406.25,-394.88 604.4,-452.93 851.29,-428.59 976.3,-409.92"/>
<polygon fill="#757575" stroke="#757575" points="976.79,-413.39 986.15,-408.42 975.74,-406.47 976.79,-413.39"/>
</g>
<!-- components/renderComtradeCharts.js&#45;&gt;components/createDragBar.js -->
<g id="edge18" class="edge">
<title>components/renderComtradeCharts.js&#45;&gt;components/createDragBar.js</title>
<path fill="none" stroke="#757575" d="M356.25,-319.64C361.17,-317.12 365.87,-314.21 370.25,-310.88 401.28,-287.27 375.16,-254.4 406.25,-230.88 497.98,-161.48 563.73,-252.24 662.25,-192.88 685.4,-178.93 675.83,-158.96 698.25,-143.88 703.69,-140.21 709.61,-137.07 715.76,-134.37"/>
<polygon fill="#757575" stroke="#757575" points="716.87,-137.69 724.89,-130.78 714.31,-131.18 716.87,-137.69"/>
</g>
<!-- components/renderComtradeCharts.js&#45;&gt;components/renderAnalogCharts.js -->
<g id="edge20" class="edge">
<title>components/renderComtradeCharts.js&#45;&gt;components/renderAnalogCharts.js</title>
<path fill="none" stroke="#757575" d="M348.16,-319.51C355.8,-317.09 363.23,-314.24 370.25,-310.88 389.82,-301.49 386.92,-287.74 406.25,-277.88 414.23,-273.8 422.8,-270.37 431.58,-267.47"/>
<polygon fill="#757575" stroke="#757575" points="432.38,-270.89 440.93,-264.63 430.34,-264.19 432.38,-270.89"/>
</g>
<!-- components/renderDigitalCharts.js -->
<g id="node19" class="node">
<title>components/renderDigitalCharts.js</title>
<path fill="none" stroke="#c6c5fe" d="M638.21,-385.75C638.21,-385.75 430.29,-385.75 430.29,-385.75 426.33,-385.75 422.38,-381.79 422.38,-377.83 422.38,-377.83 422.38,-369.92 422.38,-369.92 422.38,-365.96 426.33,-362 430.29,-362 430.29,-362 638.21,-362 638.21,-362 642.17,-362 646.12,-365.96 646.12,-369.92 646.12,-369.92 646.12,-377.83 646.12,-377.83 646.12,-381.79 642.17,-385.75 638.21,-385.75"/>
<text xml:space="preserve" text-anchor="middle" x="534.25" y="-368.45" font-family="Arial" font-size="14.00" fill="#c6c5fe">components/renderDigitalCharts.js</text>
</g>
<!-- components/renderComtradeCharts.js&#45;&gt;components/renderDigitalCharts.js -->
<g id="edge21" class="edge">
<title>components/renderComtradeCharts.js&#45;&gt;components/renderDigitalCharts.js</title>
<path fill="none" stroke="#757575" d="M322.08,-344.25C357.25,-349.18 397.9,-354.89 434.08,-359.96"/>
<polygon fill="#757575" stroke="#757575" points="433.27,-363.38 443.66,-361.31 434.24,-356.45 433.27,-363.38"/>
</g>
<!-- components/setupChartDragAndDrop.js -->
<g id="node20" class="node">
<title>components/setupChartDragAndDrop.js</title>
<path fill="none" stroke="#cfffac" d="M654.33,-183.75C654.33,-183.75 414.17,-183.75 414.17,-183.75 410.21,-183.75 406.25,-179.79 406.25,-175.83 406.25,-175.83 406.25,-167.92 406.25,-167.92 406.25,-163.96 410.21,-160 414.17,-160 414.17,-160 654.33,-160 654.33,-160 658.29,-160 662.25,-163.96 662.25,-167.92 662.25,-167.92 662.25,-175.83 662.25,-175.83 662.25,-179.79 658.29,-183.75 654.33,-183.75"/>
<text xml:space="preserve" text-anchor="middle" x="534.25" y="-166.45" font-family="Arial" font-size="14.00" fill="#cfffac">components/setupChartDragAndDrop.js</text>
</g>
<!-- components/renderComtradeCharts.js&#45;&gt;components/setupChartDragAndDrop.js -->
<g id="edge22" class="edge">
<title>components/renderComtradeCharts.js&#45;&gt;components/setupChartDragAndDrop.js</title>
<path fill="none" stroke="#757575" d="M356.43,-320.43C361.33,-317.7 365.97,-314.53 370.25,-310.88 410.31,-276.61 367.05,-233.11 406.25,-197.88 409.64,-194.83 413.28,-192.11 417.12,-189.67"/>
<polygon fill="#757575" stroke="#757575" points="418.66,-192.82 425.71,-184.91 415.27,-186.69 418.66,-192.82"/>
</g>
<!-- plugins/digitalFillPlugin.js -->
<g id="node21" class="node">
<title>plugins/digitalFillPlugin.js</title>
<path fill="none" stroke="#cfffac" d="M877.33,-285.75C877.33,-285.75 727.17,-285.75 727.17,-285.75 723.21,-285.75 719.25,-281.79 719.25,-277.83 719.25,-277.83 719.25,-269.92 719.25,-269.92 719.25,-265.96 723.21,-262 727.17,-262 727.17,-262 877.33,-262 877.33,-262 881.29,-262 885.25,-265.96 885.25,-269.92 885.25,-269.92 885.25,-277.83 885.25,-277.83 885.25,-281.79 881.29,-285.75 877.33,-285.75"/>
<text xml:space="preserve" text-anchor="middle" x="802.25" y="-268.45" font-family="Arial" font-size="14.00" fill="#cfffac">plugins/digitalFillPlugin.js</text>
</g>
<!-- components/renderComtradeCharts.js&#45;&gt;plugins/digitalFillPlugin.js -->
<g id="edge23" class="edge">
<title>components/renderComtradeCharts.js&#45;&gt;plugins/digitalFillPlugin.js</title>
<path fill="none" stroke="#757575" d="M331.36,-319.52C355.8,-316.55 381.97,-313.49 406.25,-310.88 509.42,-299.76 627.97,-288.91 708.06,-281.87"/>
<polygon fill="#757575" stroke="#757575" points="707.94,-285.39 717.59,-281.03 707.33,-278.42 707.94,-285.39"/>
</g>
<!-- utils/autoGroupChannels.js -->
<g id="node22" class="node">
<title>utils/autoGroupChannels.js</title>
<path fill="none" stroke="#cfffac" d="M615.71,-141.75C615.71,-141.75 452.79,-141.75 452.79,-141.75 448.83,-141.75 444.88,-137.79 444.88,-133.83 444.88,-133.83 444.88,-125.92 444.88,-125.92 444.88,-121.96 448.83,-118 452.79,-118 452.79,-118 615.71,-118 615.71,-118 619.67,-118 623.62,-121.96 623.62,-125.92 623.62,-125.92 623.62,-133.83 623.62,-133.83 623.62,-137.79 619.67,-141.75 615.71,-141.75"/>
<text xml:space="preserve" text-anchor="middle" x="534.25" y="-124.45" font-family="Arial" font-size="14.00" fill="#cfffac">utils/autoGroupChannels.js</text>
</g>
<!-- components/renderComtradeCharts.js&#45;&gt;utils/autoGroupChannels.js -->
<g id="edge24" class="edge">
<title>components/renderComtradeCharts.js&#45;&gt;utils/autoGroupChannels.js</title>
<path fill="none" stroke="#757575" d="M356.22,-321.24C361.24,-318.31 365.96,-314.88 370.25,-310.88 423.53,-261.13 353.25,-200.91 406.25,-150.88 414.15,-143.42 423.63,-138.03 433.8,-134.21"/>
<polygon fill="#757575" stroke="#757575" points="434.71,-137.59 443.18,-131.22 432.59,-130.92 434.71,-137.59"/>
</g>
<!-- utils/chartUtils.js -->
<g id="node23" class="node">
<title>utils/chartUtils.js</title>
<path fill="none" stroke="#cfffac" d="M583.08,-343.75C583.08,-343.75 485.42,-343.75 485.42,-343.75 481.46,-343.75 477.5,-339.79 477.5,-335.83 477.5,-335.83 477.5,-327.92 477.5,-327.92 477.5,-323.96 481.46,-320 485.42,-320 485.42,-320 583.08,-320 583.08,-320 587.04,-320 591,-323.96 591,-327.92 591,-327.92 591,-335.83 591,-335.83 591,-339.79 587.04,-343.75 583.08,-343.75"/>
<text xml:space="preserve" text-anchor="middle" x="534.25" y="-326.45" font-family="Arial" font-size="14.00" fill="#cfffac">utils/chartUtils.js</text>
</g>
<!-- components/renderComtradeCharts.js&#45;&gt;utils/chartUtils.js -->
<g id="edge25" class="edge">
<title>components/renderComtradeCharts.js&#45;&gt;utils/chartUtils.js</title>
<path fill="none" stroke="#757575" d="M356.07,-331.88C393.68,-331.88 433.68,-331.88 466.14,-331.88"/>
<polygon fill="#757575" stroke="#757575" points="465.77,-335.38 475.77,-331.88 465.77,-328.38 465.77,-335.38"/>
</g>
<!-- components/renderDigitalCharts.js&#45;&gt;utils/helpers.js -->
<g id="edge31" class="edge">
<title>components/renderDigitalCharts.js&#45;&gt;utils/helpers.js</title>
<path fill="none" stroke="#757575" d="M631.49,-361.58C642,-359.17 652.44,-356.3 662.25,-352.88 679.53,-346.85 680.53,-337.47 698.25,-332.88 959.25,-265.24 1285.86,-302.48 1419.49,-322.63"/>
<polygon fill="#757575" stroke="#757575" points="1418.77,-326.06 1429.18,-324.11 1419.83,-319.14 1418.77,-326.06"/>
</g>
<!-- components/renderDigitalCharts.js&#45;&gt;components/chartComponent.js -->
<g id="edge26" class="edge">
<title>components/renderDigitalCharts.js&#45;&gt;components/chartComponent.js</title>
<path fill="none" stroke="#757575" d="M559.32,-386.18C606.8,-410.46 712.62,-464.56 767.22,-492.48"/>
<polygon fill="#757575" stroke="#757575" points="765.58,-495.57 776.07,-497 768.76,-489.33 765.58,-495.57"/>
</g>
<!-- components/renderDigitalCharts.js&#45;&gt;plugins/verticalLinePlugin.js -->
<g id="edge29" class="edge">
<title>components/renderDigitalCharts.js&#45;&gt;plugins/verticalLinePlugin.js</title>
<path fill="none" stroke="#757575" d="M646.59,-378.35C720.35,-380.28 819.18,-380.92 906.25,-374.88 927.57,-373.4 950.47,-370.75 971.82,-367.83"/>
<polygon fill="#757575" stroke="#757575" points="972.25,-371.3 981.66,-366.44 971.27,-364.37 972.25,-371.3"/>
</g>
<!-- components/renderDigitalCharts.js&#45;&gt;components/createDragBar.js -->
<g id="edge27" class="edge">
<title>components/renderDigitalCharts.js&#45;&gt;components/createDragBar.js</title>
<path fill="none" stroke="#757575" d="M646.58,-363.1C652.17,-360.26 657.44,-356.88 662.25,-352.88 698.54,-322.64 675.66,-294.36 698.25,-252.88 722.23,-208.83 759.82,-163.71 782.35,-138.39"/>
<polygon fill="#757575" stroke="#757575" points="784.8,-140.9 788.9,-131.13 779.6,-136.21 784.8,-140.9"/>
</g>
<!-- components/renderDigitalCharts.js&#45;&gt;plugins/digitalFillPlugin.js -->
<g id="edge28" class="edge">
<title>components/renderDigitalCharts.js&#45;&gt;plugins/digitalFillPlugin.js</title>
<path fill="none" stroke="#757575" d="M645.48,-361.6C651.34,-359.13 656.98,-356.25 662.25,-352.88 686.24,-337.53 674.92,-316.2 698.25,-299.88 703.35,-296.31 708.89,-293.23 714.68,-290.57"/>
<polygon fill="#757575" stroke="#757575" points="715.97,-293.82 723.9,-286.8 713.32,-287.34 715.97,-293.82"/>
</g>
<!-- utils/digitalChannelUtils.js -->
<g id="node24" class="node">
<title>utils/digitalChannelUtils.js</title>
<path fill="none" stroke="#cfffac" d="M878.83,-365.75C878.83,-365.75 725.67,-365.75 725.67,-365.75 721.71,-365.75 717.75,-361.79 717.75,-357.83 717.75,-357.83 717.75,-349.92 717.75,-349.92 717.75,-345.96 721.71,-342 725.67,-342 725.67,-342 878.83,-342 878.83,-342 882.79,-342 886.75,-345.96 886.75,-349.92 886.75,-349.92 886.75,-357.83 886.75,-357.83 886.75,-361.79 882.79,-365.75 878.83,-365.75"/>
<text xml:space="preserve" text-anchor="middle" x="802.25" y="-348.45" font-family="Arial" font-size="14.00" fill="#cfffac">utils/digitalChannelUtils.js</text>
</g>
<!-- components/renderDigitalCharts.js&#45;&gt;utils/digitalChannelUtils.js -->
<g id="edge30" class="edge">
<title>components/renderDigitalCharts.js&#45;&gt;utils/digitalChannelUtils.js</title>
<path fill="none" stroke="#757575" d="M646.52,-365.51C666.39,-364.01 686.93,-362.47 706.3,-361.01"/>
<polygon fill="#757575" stroke="#757575" points="706.33,-364.52 716.04,-360.28 705.8,-357.54 706.33,-364.52"/>
</g>
<!-- components/showChannelListWindow.js -->
<g id="node25" class="node">
<title>components/showChannelListWindow.js</title>
<path fill="none" stroke="#c6c5fe" d="M354.08,-659.75C354.08,-659.75 111.67,-659.75 111.67,-659.75 107.71,-659.75 103.75,-655.79 103.75,-651.83 103.75,-651.83 103.75,-643.92 103.75,-643.92 103.75,-639.96 107.71,-636 111.67,-636 111.67,-636 354.08,-636 354.08,-636 358.04,-636 362,-639.96 362,-643.92 362,-643.92 362,-651.83 362,-651.83 362,-655.79 358.04,-659.75 354.08,-659.75"/>
<text xml:space="preserve" text-anchor="middle" x="232.88" y="-642.45" font-family="Arial" font-size="14.00" fill="#c6c5fe">components/showChannelListWindow.js</text>
</g>
<!-- components/showChannelListWindow.js&#45;&gt;components/ChannelList.js -->
<g id="edge32" class="edge">
<title>components/showChannelListWindow.js&#45;&gt;components/ChannelList.js</title>
<path fill="none" stroke="#757575" d="M362.48,-650.78C577.19,-655.62 1004.17,-665.25 1198.01,-669.62"/>
<polygon fill="#757575" stroke="#757575" points="1197.72,-673.12 1207.8,-669.84 1197.88,-666.12 1197.72,-673.12"/>
</g>
<!-- components/showError.js -->
<g id="node26" class="node">
<title>components/showError.js</title>
<path fill="none" stroke="#cfffac" d="M309.08,-23.75C309.08,-23.75 156.67,-23.75 156.67,-23.75 152.71,-23.75 148.75,-19.79 148.75,-15.83 148.75,-15.83 148.75,-7.92 148.75,-7.92 148.75,-3.96 152.71,0 156.67,0 156.67,0 309.08,0 309.08,0 313.04,0 317,-3.96 317,-7.92 317,-7.92 317,-15.83 317,-15.83 317,-19.79 313.04,-23.75 309.08,-23.75"/>
<text xml:space="preserve" text-anchor="middle" x="232.88" y="-6.45" font-family="Arial" font-size="14.00" fill="#cfffac">components/showError.js</text>
</g>
<!-- main.js -->
<g id="node27" class="node">
<title>main.js</title>
<path fill="none" stroke="#c6c5fe" d="M51.58,-404.75C51.58,-404.75 7.92,-404.75 7.92,-404.75 3.96,-404.75 0,-400.79 0,-396.83 0,-396.83 0,-388.92 0,-388.92 0,-384.96 3.96,-381 7.92,-381 7.92,-381 51.58,-381 51.58,-381 55.54,-381 59.5,-384.96 59.5,-388.92 59.5,-388.92 59.5,-396.83 59.5,-396.83 59.5,-400.79 55.54,-404.75 51.58,-404.75"/>
<text xml:space="preserve" text-anchor="middle" x="29.75" y="-387.45" font-family="Arial" font-size="14.00" fill="#c6c5fe">main.js</text>
</g>
<!-- main.js&#45;&gt;utils/helpers.js -->
<g id="edge47" class="edge">
<title>main.js&#45;&gt;utils/helpers.js</title>
<path fill="none" stroke="#757575" d="M31.29,-380.71C33.95,-327.26 47.45,-114.14 95.5,-72.88 169.39,-9.43 435.86,-51.88 533.25,-51.88 533.25,-51.88 533.25,-51.88 1058.88,-51.88 1205.68,-51.88 1271.37,11.96 1388.25,-76.88 1463.33,-133.94 1477.56,-257.58 1480.19,-309.34"/>
<polygon fill="#757575" stroke="#757575" points="1476.68,-309.23 1480.57,-319.09 1483.68,-308.96 1476.68,-309.23"/>
</g>
<!-- main.js&#45;&gt;components/ResizableGroup.js -->
<g id="edge33" class="edge">
<title>main.js&#45;&gt;components/ResizableGroup.js</title>
<path fill="none" stroke="#757575" d="M31.84,-405.2C36.42,-453.89 55.67,-632.02 95.5,-668.88 102.51,-675.36 110.65,-680.34 119.4,-684.12"/>
<polygon fill="#757575" stroke="#757575" points="117.9,-687.3 128.49,-687.5 120.33,-680.73 117.9,-687.3"/>
</g>
<!-- main.js&#45;&gt;components/chartComponent.js -->
<g id="edge34" class="edge">
<title>main.js&#45;&gt;components/chartComponent.js</title>
<path fill="none" stroke="#757575" d="M33.34,-404.87C39.4,-429.7 56.98,-486.59 95.5,-512.88 305.07,-655.89 637.36,-565.58 756.73,-525.84"/>
<polygon fill="#757575" stroke="#757575" points="757.82,-529.16 766.17,-522.64 755.57,-522.53 757.82,-529.16"/>
</g>
<!-- main.js&#45;&gt;components/createState.js -->
<g id="edge38" class="edge">
<title>main.js&#45;&gt;components/createState.js</title>
<path fill="none" stroke="#757575" d="M59.97,-404.21C70.95,-407.97 83.64,-411.74 95.5,-413.88 272.9,-445.86 735.24,-496.88 906.25,-439.88 925.22,-433.55 923.79,-420.58 942.25,-412.88 947.45,-410.7 952.89,-408.8 958.45,-407.14"/>
<polygon fill="#757575" stroke="#757575" points="959.06,-410.6 967.8,-404.62 957.24,-403.84 959.06,-410.6"/>
</g>
<!-- main.js&#45;&gt;utils/calculateDeltas.js -->
<g id="edge45" class="edge">
<title>main.js&#45;&gt;utils/calculateDeltas.js</title>
<path fill="none" stroke="#757575" d="M31.1,-405.11C32.76,-437.62 42.19,-526.31 95.5,-565.88 206.63,-648.35 267.92,-581.43 406.25,-585.88 519.97,-589.53 548.66,-592.46 662.25,-585.88 860.42,-574.38 1091.59,-542.88 1213.17,-524.9"/>
<polygon fill="#757575" stroke="#757575" points="1213.36,-528.42 1222.73,-523.48 1212.33,-521.49 1213.36,-528.42"/>
</g>
<!-- main.js&#45;&gt;utils/constants.js -->
<g id="edge46" class="edge">
<title>main.js&#45;&gt;utils/constants.js</title>
<path fill="none" stroke="#757575" d="M31.35,-404.92C34.23,-457.84 48.56,-668.92 95.5,-710.88 241.13,-841.04 337.92,-749.88 533.25,-749.88 533.25,-749.88 533.25,-749.88 1058.88,-749.88 1206.14,-749.88 1257.38,-781.4 1388.25,-713.88 1424.33,-695.26 1452.89,-656.29 1468.26,-631.69"/>
<polygon fill="#757575" stroke="#757575" points="1471.08,-633.8 1473.25,-623.43 1465.08,-630.19 1471.08,-633.8"/>
</g>
<!-- main.js&#45;&gt;components/chartManager.js -->
<g id="edge35" class="edge">
<title>main.js&#45;&gt;components/chartManager.js</title>
<path fill="none" stroke="#757575" d="M37.73,-405.09C48.03,-421.85 68.97,-451.55 95.5,-465.88 198.65,-521.58 334.41,-533.61 427.23,-534.25"/>
<polygon fill="#757575" stroke="#757575" points="427.09,-537.75 437.1,-534.27 427.11,-530.75 427.09,-537.75"/>
</g>
<!-- main.js&#45;&gt;components/comtradeUtils.js -->
<g id="edge36" class="edge">
<title>main.js&#45;&gt;components/comtradeUtils.js</title>
<path fill="none" stroke="#757575" d="M60,-392.88C77.68,-392.88 101.42,-392.88 125.6,-392.88"/>
<polygon fill="#757575" stroke="#757575" points="125.59,-396.38 135.59,-392.88 125.59,-389.38 125.59,-396.38"/>
</g>
<!-- main.js&#45;&gt;components/createDragBar.js -->
<g id="edge37" class="edge">
<title>main.js&#45;&gt;components/createDragBar.js</title>
<path fill="none" stroke="#757575" d="M31.78,-380.69C36.1,-332.57 54.52,-156.71 95.5,-122.88 185.42,-48.62 531.81,-82.03 703.55,-104.04"/>
<polygon fill="#757575" stroke="#757575" points="702.99,-107.5 713.36,-105.31 703.89,-100.56 702.99,-107.5"/>
</g>
<!-- main.js&#45;&gt;components/handleVerticalLineShortcuts.js -->
<g id="edge39" class="edge">
<title>main.js&#45;&gt;components/handleVerticalLineShortcuts.js</title>
<path fill="none" stroke="#757575" d="M36.55,-380.75C46.06,-362.31 66.82,-327.59 95.5,-310.88 98.04,-309.4 100.64,-308.01 103.3,-306.72"/>
<polygon fill="#757575" stroke="#757575" points="104.67,-309.94 112.44,-302.74 101.87,-303.52 104.67,-309.94"/>
</g>
<!-- main.js&#45;&gt;components/renderComtradeCharts.js -->
<g id="edge40" class="edge">
<title>main.js&#45;&gt;components/renderComtradeCharts.js</title>
<path fill="none" stroke="#757575" d="M59.7,-383.29C70.87,-379.65 83.76,-375.5 95.5,-371.88 122.61,-363.51 152.88,-354.58 178,-347.3"/>
<polygon fill="#757575" stroke="#757575" points="178.7,-350.74 187.33,-344.6 176.75,-344.01 178.7,-350.74"/>
</g>
<!-- main.js&#45;&gt;components/setupChartDragAndDrop.js -->
<g id="edge41" class="edge">
<title>main.js&#45;&gt;components/setupChartDragAndDrop.js</title>
<path fill="none" stroke="#757575" d="M33.61,-380.51C40.07,-355.43 58.21,-298.46 95.5,-268.88 180.02,-201.81 301.36,-178.93 394.85,-172.05"/>
<polygon fill="#757575" stroke="#757575" points="394.86,-175.56 404.6,-171.39 394.39,-168.57 394.86,-175.56"/>
</g>
<!-- main.js&#45;&gt;utils/autoGroupChannels.js -->
<g id="edge44" class="edge">
<title>main.js&#45;&gt;utils/autoGroupChannels.js</title>
<path fill="none" stroke="#757575" d="M32.51,-380.63C38.85,-338.19 61.99,-198.55 95.5,-170.88 145.22,-129.82 319.97,-125.1 433.07,-126.63"/>
<polygon fill="#757575" stroke="#757575" points="432.93,-130.13 442.98,-126.79 433.04,-123.13 432.93,-130.13"/>
</g>
<!-- main.js&#45;&gt;components/showChannelListWindow.js -->
<g id="edge42" class="edge">
<title>main.js&#45;&gt;components/showChannelListWindow.js</title>
<path fill="none" stroke="#757575" d="M30.13,-405.05C28.88,-443.37 30.62,-562.42 95.5,-621.88 98.71,-624.82 102.15,-627.47 105.76,-629.87"/>
<polygon fill="#757575" stroke="#757575" points="103.99,-632.89 114.4,-634.86 107.49,-626.83 103.99,-632.89"/>
</g>
<!-- main.js&#45;&gt;components/showError.js -->
<g id="edge43" class="edge">
<title>main.js&#45;&gt;components/showError.js</title>
<path fill="none" stroke="#757575" d="M31.18,-380.72C33.46,-324.22 45.86,-87.91 95.5,-37.88 106.95,-26.34 121.83,-19.07 137.54,-14.63"/>
<polygon fill="#757575" stroke="#757575" points="138.14,-18.09 147.04,-12.34 136.5,-11.28 138.14,-18.09"/>
</g>
</g>
</svg>
